<svg width="1067" height="300" viewBox="0 0 1067 300" fill="none" xmlns="http://www.w3.org/2000/svg">
<circle cx="149.629" cy="150" r="149.517" fill="#0051FF"/>
<path d="M191.649 213.817L236.362 86.1821H248.15L203.437 213.817H191.649Z" fill="white"/>
<path d="M151.099 201.352C127.929 201.352 110.993 185.77 110.993 163.82C110.993 141.87 127.929 126.289 151.099 126.289C174.268 126.289 191.069 141.87 191.069 163.82C191.069 185.77 174.268 201.352 151.099 201.352ZM151.099 184.009C161.667 184.009 169.661 176.421 169.661 163.82C169.661 151.219 161.667 143.632 151.099 143.632C140.53 143.632 132.401 151.219 132.401 163.82C132.401 176.421 140.53 184.009 151.099 184.009Z" fill="white"/>
<path d="M101.106 181.842L106.796 196.746C102.461 199.863 96.0924 201.353 89.5887 201.353C72.3809 201.353 62.3544 192.546 62.3544 175.203V145.258H51.1084V128.999H62.3544V111.25H83.4915V128.999H101.648V145.258H83.4915V174.932C83.4915 181.164 86.8788 184.552 92.5695 184.552C95.6859 184.552 98.8023 183.603 101.106 181.842Z" fill="white"/>
<path d="M1066.77 163.901C1066.77 164.714 1066.64 165.798 1066.64 166.882H1007.02C1008.1 181.786 1019.49 191.677 1035.07 191.677C1043.74 191.677 1051.46 188.561 1056.88 182.328L1062.3 188.561C1055.93 196.149 1046.04 200.214 1034.8 200.214C1012.57 200.214 997.4 185.038 997.4 163.901C997.4 142.764 1012.17 127.724 1032.22 127.724C1052.27 127.724 1066.77 142.493 1066.77 163.901ZM1032.22 135.989C1018.4 135.989 1008.24 145.745 1007.02 159.701H1057.56C1056.34 145.745 1046.18 135.989 1032.22 135.989Z" fill="black"/>
<path d="M958.962 200.214C937.689 200.214 922.243 185.174 922.243 163.901C922.243 142.629 937.689 127.724 958.962 127.724C971.021 127.724 981.183 132.467 986.873 141.816L979.692 146.694C974.814 139.512 967.227 136.125 958.962 136.125C943.38 136.125 931.998 147.235 931.998 163.901C931.998 180.702 943.38 191.677 958.962 191.677C967.227 191.677 974.814 188.426 979.692 181.244L986.873 186.122C981.183 195.336 971.021 200.214 958.962 200.214Z" fill="black"/>
<path d="M873.775 127.724C891.118 127.724 903.042 137.751 903.042 158.211V199.536H893.422V159.159C893.422 144.119 885.563 136.396 872.014 136.396C856.703 136.396 847.083 145.881 847.083 162.14V199.536H837.463V128.266H846.676V141.409C851.825 132.738 861.445 127.724 873.775 127.724Z" fill="black"/>
<path d="M782.473 127.724C800.9 127.724 811.334 136.938 811.334 155.365V199.536H802.12V188.426C797.784 195.742 789.383 200.214 777.596 200.214C761.472 200.214 751.581 191.813 751.581 179.483C751.581 168.508 758.626 159.294 779.086 159.294H801.713V154.959C801.713 142.764 794.803 136.125 781.525 136.125C772.311 136.125 763.64 139.377 757.813 144.526L753.478 137.344C760.659 131.247 771.227 127.724 782.473 127.724ZM779.086 192.626C789.925 192.626 797.92 187.477 801.713 178.128V166.476H779.357C765.537 166.476 761.065 171.895 761.065 179.212C761.065 187.477 767.704 192.626 779.086 192.626Z" fill="black"/>
<path d="M702.158 127.724C719.502 127.724 731.425 137.751 731.425 158.211V199.536H721.805V159.159C721.805 144.119 713.946 136.396 700.397 136.396C685.086 136.396 675.466 145.881 675.466 162.14V199.536H665.846V128.266H675.06V141.409C680.208 132.738 689.828 127.724 702.158 127.724Z" fill="black"/>
<path d="M634.336 112.685C630.407 112.685 627.291 109.569 627.291 105.775C627.291 102.116 630.407 99 634.336 99C638.266 99 641.382 101.981 641.382 105.639C641.382 109.569 638.401 112.685 634.336 112.685ZM629.458 199.536V128.267H639.078V199.536H629.458Z" fill="black"/>
<path d="M612.109 113.363H557.098V150.624H606.147V159.295H557.098V199.537H547.072V104.691H612.109V113.363Z" fill="black"/>
<path d="M487.282 200.621C464.112 200.621 447.176 185.039 447.176 163.089C447.176 141.139 464.112 125.557 487.282 125.557C510.451 125.557 527.252 141.139 527.252 163.089C527.252 185.039 510.451 200.621 487.282 200.621ZM487.282 183.278C497.85 183.278 505.844 175.69 505.844 163.089C505.844 150.488 497.85 142.901 487.282 142.901C476.713 142.901 468.584 150.488 468.584 163.089C468.584 175.69 476.713 183.278 487.282 183.278Z" fill="black"/>
<path d="M397.385 199.537V122.576H367.034V104.691H449.685V122.576H419.335V199.537H397.385Z" fill="black"/>
</svg>
