<svg width="300" height="300" viewBox="0 0 300 300" fill="none" xmlns="http://www.w3.org/2000/svg">
<circle cx="149.629" cy="150" r="149.517" fill="#0051FF"/>
<path d="M191.649 213.817L236.362 86.1821H248.15L203.437 213.817H191.649Z" fill="white"/>
<path d="M151.099 201.352C127.929 201.352 110.993 185.77 110.993 163.82C110.993 141.87 127.929 126.289 151.099 126.289C174.268 126.289 191.069 141.87 191.069 163.82C191.069 185.77 174.268 201.352 151.099 201.352ZM151.099 184.009C161.667 184.009 169.661 176.421 169.661 163.82C169.661 151.219 161.667 143.632 151.099 143.632C140.53 143.632 132.401 151.219 132.401 163.82C132.401 176.421 140.53 184.009 151.099 184.009Z" fill="white"/>
<path d="M101.106 181.842L106.796 196.746C102.461 199.863 96.0924 201.353 89.5887 201.353C72.3809 201.353 62.3544 192.546 62.3544 175.203V145.258H51.1084V128.999H62.3544V111.25H83.4915V128.999H101.648V145.258H83.4915V174.932C83.4915 181.164 86.8788 184.552 92.5695 184.552C95.6859 184.552 98.8023 183.603 101.106 181.842Z" fill="white"/>
</svg>
