<svg width="1068" height="300" viewBox="0 0 1068 300" fill="none" xmlns="http://www.w3.org/2000/svg">
<circle cx="150.011" cy="150" r="149.517" fill="#0051FF"/>
<path d="M192.031 213.817L236.744 86.1821H248.532L203.819 213.817H192.031Z" fill="white"/>
<path d="M151.481 201.352C128.312 201.352 111.375 185.77 111.375 163.82C111.375 141.87 128.312 126.289 151.481 126.289C174.651 126.289 191.452 141.87 191.452 163.82C191.452 185.77 174.651 201.352 151.481 201.352ZM151.481 184.009C162.05 184.009 170.044 176.421 170.044 163.82C170.044 151.219 162.05 143.632 151.481 143.632C140.913 143.632 132.783 151.219 132.783 163.82C132.783 176.421 140.913 184.009 151.481 184.009Z" fill="white"/>
<path d="M101.488 181.842L107.179 196.746C102.843 199.863 96.4747 201.353 89.971 201.353C72.7632 201.353 62.7367 192.546 62.7367 175.203V145.258H51.4907V128.999H62.7367V111.25H83.8737V128.999H102.03V145.258H83.8737V174.932C83.8737 181.164 87.2611 184.552 92.9518 184.552C96.0682 184.552 99.1846 183.603 101.488 181.842Z" fill="white"/>
<path d="M1067.15 162.901C1067.15 163.714 1067.02 164.798 1067.02 165.882H1007.4C1008.49 180.786 1019.87 190.677 1035.45 190.677C1044.12 190.677 1051.84 187.561 1057.26 181.328L1062.68 187.561C1056.32 195.149 1046.42 199.214 1035.18 199.214C1012.96 199.214 997.782 184.038 997.782 162.901C997.782 141.764 1012.55 126.724 1032.6 126.724C1052.66 126.724 1067.15 141.493 1067.15 162.901ZM1032.6 134.989C1018.78 134.989 1008.62 144.745 1007.4 158.701H1057.94C1056.72 144.745 1046.56 134.989 1032.6 134.989Z" fill="white"/>
<path d="M959.344 199.214C938.071 199.214 922.625 184.174 922.625 162.901C922.625 141.629 938.071 126.724 959.344 126.724C971.403 126.724 981.565 131.467 987.255 140.816L980.074 145.694C975.196 138.512 967.609 135.125 959.344 135.125C943.762 135.125 932.38 146.235 932.38 162.901C932.38 179.702 943.762 190.677 959.344 190.677C967.609 190.677 975.196 187.426 980.074 180.244L987.255 185.122C981.565 194.336 971.403 199.214 959.344 199.214Z" fill="white"/>
<path d="M874.157 126.724C891.5 126.724 903.424 136.751 903.424 157.211V198.536H893.804V158.159C893.804 143.119 885.945 135.396 872.396 135.396C857.085 135.396 847.465 144.881 847.465 161.14V198.536H837.845V127.266H847.058V140.409C852.207 131.738 861.827 126.724 874.157 126.724Z" fill="white"/>
<path d="M782.855 126.724C801.283 126.724 811.716 135.938 811.716 154.365V198.536H802.502V187.426C798.166 194.742 789.766 199.214 777.978 199.214C761.854 199.214 751.963 190.813 751.963 178.483C751.963 167.508 759.008 158.294 779.468 158.294H802.096V153.959C802.096 141.764 795.185 135.125 781.907 135.125C772.693 135.125 764.022 138.377 758.195 143.526L753.86 136.344C761.041 130.247 771.609 126.724 782.855 126.724ZM779.468 191.626C790.308 191.626 798.302 186.477 802.096 177.128V165.476H779.739C765.919 165.476 761.447 170.895 761.447 178.212C761.447 186.477 768.087 191.626 779.468 191.626Z" fill="white"/>
<path d="M702.54 126.724C719.884 126.724 731.807 136.751 731.807 157.211V198.536H722.187V158.159C722.187 143.119 714.328 135.396 700.779 135.396C685.468 135.396 675.848 144.881 675.848 161.14V198.536H666.228V127.266H675.442V140.409C680.59 131.738 690.21 126.724 702.54 126.724Z" fill="white"/>
<path d="M634.718 111.685C630.789 111.685 627.673 108.569 627.673 104.775C627.673 101.116 630.789 98 634.718 98C638.648 98 641.764 100.981 641.764 104.639C641.764 108.569 638.783 111.685 634.718 111.685ZM629.841 198.536V127.267H639.461V198.536H629.841Z" fill="white"/>
<path d="M612.491 112.363H557.48V149.624H606.529V158.295H557.48V198.537H547.454V103.691H612.491V112.363Z" fill="white"/>
<path d="M487.664 199.621C464.494 199.621 447.558 184.039 447.558 162.089C447.558 140.139 464.494 124.557 487.664 124.557C510.833 124.557 527.635 140.139 527.635 162.089C527.635 184.039 510.833 199.621 487.664 199.621ZM487.664 182.278C498.232 182.278 506.227 174.69 506.227 162.089C506.227 149.488 498.232 141.901 487.664 141.901C477.095 141.901 468.966 149.488 468.966 162.089C468.966 174.69 477.095 182.278 487.664 182.278Z" fill="white"/>
<path d="M397.767 198.537V121.576H367.416V103.691H450.068V121.576H419.717V198.537H397.767Z" fill="white"/>
</svg>
