<svg width="513" height="512" viewBox="0 0 513 512" fill="none" xmlns="http://www.w3.org/2000/svg">
<circle cx="256.292" cy="256.18" r="207.18" fill="#0051FF"/>
<path d="M314.518 344.612L376.475 167.752H392.809L330.852 344.612H314.518Z" fill="white"/>
<path d="M258.329 327.338C226.224 327.338 202.755 305.747 202.755 275.332C202.755 244.916 226.224 223.325 258.329 223.325C290.434 223.325 313.715 244.916 313.715 275.332C313.715 305.747 290.434 327.338 258.329 327.338ZM258.329 303.306C272.973 303.306 284.05 292.792 284.05 275.332C284.05 257.871 272.973 247.357 258.329 247.357C243.684 247.357 232.419 257.871 232.419 275.332C232.419 292.792 243.684 303.306 258.329 303.306Z" fill="white"/>
<path d="M189.055 300.298L196.941 320.951C190.933 325.269 182.109 327.334 173.097 327.334C149.252 327.334 135.359 315.131 135.359 291.099V249.606H119.776V227.076H135.359V202.481H164.648V227.076H189.806V249.606H164.648V290.723C164.648 299.36 169.342 304.053 177.227 304.053C181.545 304.053 185.864 302.739 189.055 300.298Z" fill="white"/>
</svg>
